# xmcd
# Track frame offsets:
# 150
# 12405
# 25305
# 39877
# 52462
# 70220
# 89600
# 104477
# 121332
# 137615
# 150945
# 175682
# 188295
# 201055
# 220002
#
# Disc length: 3238 seconds
# Revision: 0
# Processed by: cddbd v1.4PL0 Copyright (c) Steve Scherf et al.
# Submitted via: VisiTrax 2.9.5.181 - For more info visit www.synapsa.com
#
DISCID=c50ca40f
DTITLE=Various Artist - Line Dance 2 "Favorites" Vol. 02
DYEAR=1997
DGENRE=Country
TTITLE0=Tennesse Whiskey - Daddy's Dressing Up Again
TTITLE1=Hollywood Hillbillies - Three Time Loser
TTITLE2=Mark Reichow - Everything's Big In Texas
TTITLE3=David Woods - Whiskey Drinkin' Woman
TTITLE4=Jim Crowston - The Step Momma From Hell
TTITLE5=Rhineston Calais and The Western Quarter - Parisin Cowboy
TTITLE6=Martin Lawford - If You Can't Fight, Wear A Big Hat
TTITLE7=Alan Cameron - Crystal Chandeliers
TTITLE8=Collin Mackay - Tough Guys Don't Dance
TTITLE9=Debra Hart - Country Mile
TTITLE10=Big Al - Be A Yodel-Lay-Dee Line Dancer
TTITLE11=Michael Stanton - Loan Me A Lincoln
TTITLE12=Keith Munday - Great Big Knockers
TTITLE13=Paul Griggs - Put 'Em Where The Sun Don't Shine
TTITLE14=Harry Lang - I've Forgotten What It Is I Drink To Forget
EXTD=
EXTT0=
EXTT1=
EXTT2=
EXTT3=
EXTT4=
EXTT5=
EXTT6=
EXTT7=
EXTT8=
EXTT9=
EXTT10=
EXTT11=
EXTT12=
EXTT13=
EXTT14=
PLAYORDER=
